<svg id="visual" viewBox="0 0 900 300" width="900" height="300" xmlns="http://www.w3.org/2000/svg" xmlns:xlink="http://www.w3.org/1999/xlink" version="1.1"><path d="M0 78L21.5 77.7C43 77.3 86 76.7 128.8 95.3C171.7 114 214.3 152 257.2 157.5C300 163 343 136 385.8 140.5C428.7 145 471.3 181 514.2 197.5C557 214 600 211 642.8 193.8C685.7 176.7 728.3 145.3 771.2 133.2C814 121 857 128 878.5 131.5L900 135L900 301L878.5 301C857 301 814 301 771.2 301C728.3 301 685.7 301 642.8 301C600 301 557 301 514.2 301C471.3 301 428.7 301 385.8 301C343 301 300 301 257.2 301C214.3 301 171.7 301 128.8 301C86 301 43 301 21.5 301L0 301Z" fill="#1C1E30" stroke-linecap="round" stroke-linejoin="miter"></path></svg>