<svg id="visual" viewBox="0 0 900 100" width="900" height="100" xmlns="http://www.w3.org/2000/svg" xmlns:xlink="http://www.w3.org/1999/xlink" version="1.1"><rect x="0" y="0" width="900" height="100" fill="#1C1E30"></rect><path d="M0 25L21.5 25C43 25 86 25 128.8 31.3C171.7 37.7 214.3 50.3 257.2 52.2C300 54 343 45 385.8 46.5C428.7 48 471.3 60 514.2 65.5C557 71 600 70 642.8 64.2C685.7 58.3 728.3 47.7 771.2 43.5C814 39.3 857 41.7 878.5 42.8L900 44L900 101L878.5 101C857 101 814 101 771.2 101C728.3 101 685.7 101 642.8 101C600 101 557 101 514.2 101C471.3 101 428.7 101 385.8 101C343 101 300 101 257.2 101C214.3 101 171.7 101 128.8 101C86 101 43 101 21.5 101L0 101Z" fill="#EC5BDB" stroke-linecap="round" stroke-linejoin="miter"></path></svg>